<?xml version="1.0" standalone="no"?>
<!DOCTYPE svg PUBLIC "-//W3C//DTD SVG 20010904//EN"
 "http://www.w3.org/TR/2001/REC-SVG-20010904/DTD/svg10.dtd">
<svg version="1.0" xmlns="http://www.w3.org/2000/svg"
 width="922.000000pt" height="824.000000pt" viewBox="0 0 922.000000 824.000000"
 preserveAspectRatio="xMidYMid meet">

<g transform="translate(0.000000,824.000000) scale(0.100000,-0.100000)"
fill="#ffffff" stroke="none">
<path d="M4395 7410 c-828 -64 -1503 -320 -1934 -735 -348 -335 -592 -818
-711 -1408 -89 -442 -112 -898 -61 -1203 80 -476 347 -1140 666 -1655 266
-429 580 -715 962 -875 165 -69 362 -125 566 -159 199 -33 718 -62 912 -50
397 23 806 142 1270 370 375 184 643 371 906 634 367 367 589 776 707 1301 41
180 59 316 72 550 20 339 -11 555 -122 870 -76 214 -217 515 -376 800 -496
888 -1256 1428 -2176 1545 -144 19 -526 27 -681 15z m558 -2182 c328 -228 337
-236 331 -253 -4 -8 -13 -15 -21 -15 -8 0 -134 84 -280 186 -145 102 -270 183
-277 181 -7 -3 -127 -85 -267 -183 -140 -98 -263 -178 -274 -178 -58 -2 -9 41
260 229 154 107 283 195 288 195 4 0 112 -73 240 -162z m2 -106 l240 -168 0
-369 0 -370 -42 -3 -43 -3 0 265 0 266 -395 0 -395 0 -2 -262 -3 -263 -42 -3
-43 -3 0 373 0 373 238 167 c130 92 239 167 242 167 3 1 114 -75 245 -167z
m-73 -509 c13 -16 35 -46 48 -68 13 -22 25 -42 26 -44 2 -1 13 4 25 12 11 9
28 13 35 10 23 -9 16 -43 -11 -55 -23 -10 -25 -17 -25 -74 0 -35 -4 -66 -10
-69 -5 -3 -10 -24 -10 -46 0 -32 -4 -41 -25 -51 -41 -18 -75 3 -75 47 l0 35
-160 0 -160 0 0 -35 c0 -44 -34 -65 -75 -47 -21 10 -25 19 -25 51 0 22 -4 43
-10 46 -5 3 -10 34 -10 69 0 57 -2 64 -25 74 -27 12 -34 46 -11 55 7 3 24 -1
35 -10 12 -8 23 -13 25 -12 1 2 17 29 36 59 18 30 40 60 49 67 11 9 65 12 172
13 l155 0 26 -27z m-2018 -791 c2 -4 13 -64 22 -132 10 -68 19 -120 21 -114 2
5 11 63 21 129 l18 120 57 3 57 3 0 -241 0 -240 -30 0 -30 0 -1 173 c-1 196
-7 192 -40 -25 l-22 -148 -32 0 -32 0 -24 163 -24 162 -3 -162 -2 -163 -35 0
-35 0 0 240 0 240 54 0 c30 0 57 -4 60 -8z m381 -4 c3 -7 21 -105 40 -218 19
-113 38 -215 40 -227 5 -20 1 -23 -29 -23 -34 0 -34 0 -41 58 -11 98 -13 102
-50 102 -32 0 -33 -1 -40 -57 -11 -97 -14 -103 -46 -103 -16 0 -29 5 -29 10 0
14 59 408 66 443 5 24 10 27 45 27 23 0 42 -5 44 -12z m276 -17 c17 -20 19
-41 19 -158 0 -108 -3 -141 -17 -163 -15 -26 -15 -31 0 -72 22 -58 22 -58 -16
-58 -30 0 -34 4 -52 53 l-20 52 -3 -52 -3 -53 -35 0 -34 0 0 241 0 241 71 -4
c60 -3 74 -8 90 -27z m198 14 c46 -24 53 -55 49 -245 l-3 -172 -28 -24 c-38
-32 -90 -32 -122 1 -25 24 -25 26 -25 213 0 183 1 189 23 209 38 35 65 40 106
18z m216 3 c29 -13 55 -55 55 -88 0 -16 -6 -20 -35 -20 -31 0 -35 3 -35 26 0
21 -4 25 -22 22 -23 -3 -23 -6 -26 -164 -2 -132 0 -163 12 -173 21 -18 36 -5
36 30 0 27 3 29 36 29 l37 0 -6 -42 c-11 -84 -91 -115 -148 -59 l-29 29 0 179
c0 191 5 214 54 233 29 12 41 12 71 -2z m400 -10 c10 -46 75 -426 75 -442 0
-11 -9 -16 -29 -16 -31 0 -31 0 -47 113 -6 45 -7 47 -39 47 -37 0 -37 -1 -50
-107 -7 -52 -8 -53 -40 -53 -26 0 -32 4 -29 18 2 9 17 112 34 227 17 116 33
216 35 223 3 7 21 12 44 12 34 0 41 -4 46 -22z m185 -177 c0 -169 2 -201 16
-212 11 -9 20 -10 32 -2 15 9 18 38 22 209 l5 199 28 3 27 3 0 -213 c-1 -223
-2 -233 -47 -256 -39 -21 -82 -14 -114 17 l-29 29 0 211 0 211 30 0 30 0 0
-199z m410 164 c0 -34 -1 -35 -40 -35 l-40 0 0 -205 0 -205 -35 0 -35 0 0 205
0 205 -40 0 c-39 0 -40 1 -40 35 l0 35 115 0 115 0 0 -35z m178 -1 c21 -24 22
-33 22 -200 0 -177 -5 -205 -39 -231 -30 -23 -80 -15 -112 16 l-29 29 0 179
c0 148 3 182 16 201 34 48 102 51 142 6z m359 3 c11 -12 24 -37 28 -54 6 -32
6 -33 -29 -33 -28 0 -35 4 -38 23 -2 14 -10 22 -23 22 -19 0 -20 -8 -23 -159
-3 -164 4 -200 34 -175 8 6 14 22 14 35 0 21 5 24 35 24 38 0 40 -5 24 -62
-12 -47 -55 -73 -105 -63 -59 11 -64 28 -64 235 0 181 1 187 23 207 42 39 85
39 124 0z m223 -2 c0 -35 0 -35 -45 -35 l-45 0 0 -45 0 -45 45 0 c45 0 45 0
45 -35 0 -35 0 -35 -45 -35 l-45 0 0 -95 0 -95 45 0 c43 0 45 -1 45 -30 l0
-30 -75 0 -75 0 0 240 0 240 75 0 75 0 0 -35z m150 28 c1 -5 11 -80 24 -168
l24 -160 1 168 1 167 35 0 35 0 0 -162 c0 -90 -3 -200 -7 -245 l-6 -83 -44 0
c-26 0 -45 5 -48 13 -2 6 -15 84 -29 172 l-24 160 -1 -172 -1 -173 -30 0 -30
0 0 245 0 245 50 0 c28 0 50 -3 50 -7z m390 -28 c0 -34 -1 -35 -40 -35 l-40 0
0 -205 0 -205 -30 0 -30 0 0 205 0 205 -45 0 c-45 0 -45 0 -45 35 l0 35 115 0
115 0 0 -35z m200 0 c0 -35 0 -35 -45 -35 l-45 0 0 -45 0 -45 45 0 c45 0 45 0
45 -35 0 -35 0 -35 -45 -35 l-45 0 0 -95 0 -95 45 0 c43 0 45 -1 45 -30 l0
-30 -80 0 -80 0 0 240 0 240 80 0 80 0 0 -35z m201 6 c17 -20 19 -41 19 -158
0 -108 -3 -141 -17 -163 -15 -26 -15 -31 0 -72 22 -58 22 -58 -16 -58 -30 0
-34 4 -52 53 l-20 52 -3 -52 -3 -53 -35 0 -34 0 0 241 0 241 71 -4 c60 -3 74
-8 90 -27z"/>
<path d="M4630 5120 c0 -28 3 -30 35 -30 32 0 35 2 35 30 0 28 -3 30 -35 30
-32 0 -35 -2 -35 -30z"/>
<path d="M4730 5120 c0 -28 3 -30 35 -30 32 0 35 2 35 30 0 28 -3 30 -35 30
-32 0 -35 -2 -35 -30z"/>
<path d="M4630 5026 c0 -35 1 -36 36 -36 34 0 35 1 32 33 -3 28 -7 32 -35 35
-32 3 -33 2 -33 -32z"/>
<path d="M4730 5026 c0 -35 1 -36 36 -36 34 0 35 1 32 33 -3 28 -7 32 -35 35
-32 3 -33 2 -33 -32z"/>
<path d="M4320 4890 c0 -20 7 -20 395 -20 388 0 395 0 395 20 0 20 -7 20 -395
20 -388 0 -395 0 -395 -20z"/>
<path d="M4320 4805 c0 -13 51 -15 395 -15 344 0 395 2 395 15 0 13 -51 15
-395 15 -344 0 -395 -2 -395 -15z"/>
<path d="M4554 4602 c-12 -7 -74 -105 -74 -116 0 -3 99 -6 220 -6 121 0 220 3
220 6 0 11 -62 109 -74 116 -6 4 -72 8 -146 8 -74 0 -140 -4 -146 -8z"/>
<path d="M4602 4428 c3 -9 36 -14 105 -16 83 -2 102 0 106 13 6 13 -9 15 -104
15 -84 0 -110 -3 -107 -12z"/>
<path d="M4487 4414 c-4 -4 -7 -18 -7 -31 0 -21 4 -24 28 -21 21 2 27 8 27 28
0 18 -6 26 -20 28 -12 2 -24 0 -28 -4z"/>
<path d="M4864 4406 c-10 -26 4 -46 31 -46 23 0 26 4 23 28 -3 31 -44 45 -54
18z"/>
<path d="M4640 4360 c9 -17 21 -20 70 -20 49 0 61 3 70 20 10 19 8 20 -70 20
-78 0 -80 -1 -70 -20z"/>
<path d="M3196 3675 c-4 -33 -9 -68 -12 -77 -4 -14 1 -18 21 -18 25 0 26 1 19
53 -13 98 -20 108 -28 42z"/>
<path d="M3430 3635 c0 -125 0 -126 23 -123 21 3 22 6 22 123 0 117 -1 120
-22 123 -23 3 -23 2 -23 -123z"/>
<path d="M3657 3753 c-10 -10 -8 -316 2 -332 5 -8 16 -11 25 -8 14 6 16 30 16
177 0 158 -1 170 -18 170 -10 0 -22 -3 -25 -7z"/>
<path d="M4288 3705 c-4 -16 -10 -51 -13 -77 -6 -46 -5 -48 19 -48 22 0 25 3
20 28 -3 15 -9 50 -13 77 -7 46 -8 47 -13 20z"/>
<path d="M5020 3591 c0 -171 5 -196 36 -170 12 10 14 41 12 173 -3 158 -3 161
-25 164 l-23 3 0 -170z"/>
<path d="M6540 3635 c0 -125 0 -126 23 -123 21 3 22 6 22 123 0 117 -1 120
-22 123 -23 3 -23 2 -23 -123z"/>
</g>
</svg>
